<svg xmlns="http://www.w3.org/2000/svg" viewBox="0 0 1082.09 397.84"><defs><style>.cls-1{fill:#d27805;}.cls-2{fill:#ffde89;}.cls-3{fill:#fac83c;}.cls-4{fill:#f5b400;}</style></defs><g id="Layer_9" data-name="Layer 9"><path class="cls-1" d="M331,251.3V149.1h72.71v14.6H346.43v30.08H394.1v14.6H346.43V251.3Z"/><path class="cls-1" d="M418.84,251.3V144.72h14.6V251.3Z"/><path class="cls-1" d="M474.46,252.76q-11.54,0-17.92-5.95t-6.39-15.66A20.87,20.87,0,0,1,457.34,215q7.2-6.5,23-6.5h19.86v-.22q0-18.39-16.94-18.39a25.39,25.39,0,0,0-11.93,2.55,20.72,20.72,0,0,0-7.85,7.16l-10-8.11a31.22,31.22,0,0,1,12.3-11.09,37.76,37.76,0,0,1,17.34-3.87h1.6q13.44,0,21.61,7.74t8.18,23.14V251.3h-14V239.4a28.76,28.76,0,0,1-10.88,9.89A32.18,32.18,0,0,1,474.46,252.76Zm3.21-13q8.47,0,14.09-3.84a23.16,23.16,0,0,0,8.4-10.4V220H480.89q-8.62,0-12.31,2.74a8.77,8.77,0,0,0-3.68,7.41Q464.9,239.78,477.67,239.77Z"/><path class="cls-1" d="M561,253.05q-11,0-19-3.57a33.7,33.7,0,0,1-13.29-10.66l9.93-9.13q7.89,10.59,22.19,10.59h1.46q7.23,0,11.21-2.23a7,7,0,0,0,4-6.46,7.36,7.36,0,0,0-2.59-5.77q-2.6-2.25-9.46-3.65L553,219.55q-21.75-4.53-21.76-20.3a19.92,19.92,0,0,1,8-16.46q8-6.24,21.1-6.24h1.6q18.69,0,28.69,13.87l-9.92,8.25a22.51,22.51,0,0,0-8.51-7.19,24.66,24.66,0,0,0-10.4-2.16h-1.46a21.52,21.52,0,0,0-10.55,2.27,7,7,0,0,0-4,6.42,5.9,5.9,0,0,0,2.52,5q2.52,1.86,8.5,3.18l14.6,3.14q9.42,2,15,7.26T592,230.72a20,20,0,0,1-7.48,16q-7.49,6.31-21.87,6.31Z"/><path class="cls-1" d="M608.27,251.3V144.72h14.6v45.77a30.69,30.69,0,0,1,10-10.22,26,26,0,0,1,14-3.72h1.6q12.63,0,19.27,8.54t6.65,24V251.3h-14.6V210.86q0-20.73-15-20.73h-1.46a18.49,18.49,0,0,0-12.67,4.6,27.8,27.8,0,0,0-7.77,11.6v45Z"/><path class="cls-1" d="M694.63,251.3V144.72h14.6V251.3Z"/><path class="cls-1" d="M738.19,165.31a9.27,9.27,0,0,1-7.05-2.74,10.73,10.73,0,0,1,0-14,10.59,10.59,0,0,1,14.13,0,10.86,10.86,0,0,1,0,14A9.25,9.25,0,0,1,738.19,165.31Zm-7.3,86v-73h14.6v73Z"/><path class="cls-1" d="M793,229.26a43.08,43.08,0,0,1-9.63-1q-2.92,3.28-2.92,6.06,0,5.47,8.54,5.48h17.23q12.63,0,19.31,5t6.68,14.39q0,11.67-10.55,18.1t-29.61,6.42q-16.05,0-24.82-4.78t-8.75-13.83q0-11.1,14.08-17.38a12.39,12.39,0,0,1-4.08-9.34q0-6.93,6.2-13.58-11.9-7.08-11.9-21.9,0-11.75,8-19.05t22.22-7.3h1.32a40.15,40.15,0,0,1,9.67,1.09,31.18,31.18,0,0,1,8,3.14q4.32-8.31,15.41-8.32a31.34,31.34,0,0,1,5.69.59v11.89a23.17,23.17,0,0,0-3.65-.73c-1-.09-1.9-.14-2.63-.14q-5.48,0-8.1,2.26a24.56,24.56,0,0,1,5.84,16.57q0,11.68-8,19t-22.23,7.34Zm-20.22,33q0,9.5,20.59,9.49,12,0,18.25-3.21t6.28-8.54q0-7.89-13.29-7.89H784.94c-.58,0-1.17,0-1.75-.07a18.8,18.8,0,0,0-7.63,4.2A8.23,8.23,0,0,0,772.82,262.25Zm20.3-45h1.17q7.8,0,12-3.91a15,15,0,0,0,0-20.8q-4.2-3.9-12-3.91h-1.17q-7.82,0-12,3.91a15,15,0,0,0,0,20.8Q785.31,217.21,793.12,217.21Z"/><path class="cls-1" d="M846.54,251.3V144.72h14.6v45.77a30.76,30.76,0,0,1,10-10.22,26.08,26.08,0,0,1,14-3.72h1.61q12.63,0,19.27,8.54t6.65,24V251.3h-14.6V210.86q0-20.73-15-20.73h-1.46a18.47,18.47,0,0,0-12.67,4.6,27.8,27.8,0,0,0-7.77,11.6v45Z"/><path class="cls-1" d="M962.83,252.25q-13,0-19.79-6.57t-6.79-20.22V191H922V178.3h14.3V156.55h14.6V178.3h24.6V191h-24.6v32.49q0,8.61,3.58,12T965,238.82a57.14,57.14,0,0,0,6-.29q2.65-.3,5.51-.73v12.77a58.44,58.44,0,0,1-6.57,1.21A56.69,56.69,0,0,1,962.83,252.25Z"/><path class="cls-2" d="M133.43,152.71c-18.28-16.63,10.35-38.55,22.93-19.67,18.25,24.58,60.21,80.54,63.36,84.06,6.9,7.72-2.41,16-8.5,10.16C185.41,202.41,159.59,177.45,133.43,152.71Z"/><path class="cls-3" d="M234,213.58c-12.67-25.74-26.08-51.24-39.43-76.73-11.77-20.33,22.51-34,27.86-11,2.34,8.32,18,63.67,23.82,82.9C248.74,217.17,238.76,222.32,234,213.58Z"/><circle class="cls-1" cx="248.8" cy="259.34" r="22.02"/><path class="cls-3" d="M202.28,248.82c-27.7-8-55.27-15.84-83-23.44-22.9-5.25-9.53-39.64,10.95-27.88,7.68,4,57.5,29.69,75.85,38.54C214.83,240.27,210.08,250.91,202.28,248.82Z"/><path class="cls-4" d="M150.36,258.39c9.47.87,46.75,4.85,49.7,5.23,7.48,1,7.57,11.14.77,12.26-17,2.81-33.2,5.06-50.37,7.33C132.22,285.63,130.24,256.65,150.36,258.39Z"/><path class="cls-4" d="M274.33,157.17c-.77,9.48-4.34,46.8-4.69,49.75-.89,7.5-11.06,7.69-12.26.91-3-17-5.42-33.15-7.87-50.29C246.9,139.32,275.85,137,274.33,157.17Z"/></g></svg>